<svg id="Icon_-_Depression" data-name="Icon - Depression" xmlns="http://www.w3.org/2000/svg" xmlns:xlink="http://www.w3.org/1999/xlink" width="53.06" height="56.74" viewBox="0 0 53.06 56.74">
  <defs>
    <clipPath id="clip-path">
      <rect id="Rectangle_45" data-name="Rectangle 45" width="53.06" height="56.74" fill="none" stroke="#ed1f48" stroke-width="2"/>
    </clipPath>
  </defs>
  <g id="Group_98" data-name="Group 98" clip-path="url(#clip-path)">
    <path id="Path_336" data-name="Path 336" d="M24.644,73.121l3.721-10.494a7.057,7.057,0,0,0-1.854-7.547A19.539,19.539,0,0,1,20,40.784C19.945,29.368,30.212,20.063,42.933,20s23.079,9.142,23.135,20.558c0,.2-.016.393-.021.591h.024l.012,2.368,3.815,4.67a2.362,2.362,0,0,1-.335,3.324l-3.428,2.8.04,8.1a4.725,4.725,0,0,1-4.7,4.748l-4.725.023A14.181,14.181,0,0,1,43.02,56.81" transform="translate(-18.686 -18.685)" fill="none" stroke="#ed1f48" stroke-linecap="round" stroke-linejoin="round" stroke-width="2"/>
    <path id="Path_337" data-name="Path 337" d="M471.989,785.948l1.334-3.889q.023-.066.048-.13" transform="translate(-440.96 -730.524)" fill="none" stroke="#ed1f48" stroke-linecap="round" stroke-linejoin="round" stroke-width="2"/>
    <path id="Path_338" data-name="Path 338" d="M177.982,255.523a4.47,4.47,0,1,1,2.958-7.822" transform="translate(-162.105 -230.371)" fill="none" stroke="#ed1f48" stroke-linecap="round" stroke-miterlimit="10" stroke-width="2"/>
    <path id="Path_339" data-name="Path 339" d="M504.8,266.765a3.846,3.846,0,1,1,2.775,6.508" transform="translate(-471.612 -248.122)" fill="none" stroke="#ed1f48" stroke-linecap="round" stroke-miterlimit="10" stroke-width="2"/>
    <path id="Path_340" data-name="Path 340" d="M381.656,184.554a6.41,6.41,0,0,1,10.965,3.484" transform="translate(-356.565 -170.579)" fill="none" stroke="#ed1f48" stroke-linecap="round" stroke-miterlimit="10" stroke-width="2"/>
    <path id="Path_341" data-name="Path 341" d="M233.512,124.372a7.791,7.791,0,0,1,14.369-4.175" transform="translate(-218.161 -108.918)" fill="none" stroke="#ed1f48" stroke-linecap="round" stroke-miterlimit="10" stroke-width="2"/>
    <line id="Line_55" data-name="Line 55" x1="2.837" y2="2.475" transform="translate(18.376 25.344)" fill="none" stroke="#ed1f48" stroke-linecap="round" stroke-miterlimit="10" stroke-width="2"/>
    <line id="Line_56" data-name="Line 56" x1="2.837" y2="2.475" transform="translate(23.964 25.344)" fill="none" stroke="#ed1f48" stroke-linecap="round" stroke-miterlimit="10" stroke-width="2"/>
    <line id="Line_57" data-name="Line 57" x1="2.837" y2="2.475" transform="translate(29.475 25.344)" fill="none" stroke="#ed1f48" stroke-linecap="round" stroke-miterlimit="10" stroke-width="2"/>
  </g>
</svg>
