<svg xmlns="http://www.w3.org/2000/svg" xmlns:xlink="http://www.w3.org/1999/xlink" width="66" height="52" viewBox="0 0 66 52">
  <defs>
    <clipPath id="clip-path">
      <rect id="Rectangle_47" data-name="Rectangle 47" width="66" height="52" transform="translate(-0.169 0.265)" fill="none" stroke="#ed1f48" stroke-width="2"/>
    </clipPath>
  </defs>
  <g id="Icon_-_QoL" data-name="Icon - QoL" transform="translate(0)">
    <line id="Line_61" data-name="Line 61" y2="5" transform="translate(33 8)" fill="none" stroke="#ed1f48" stroke-linecap="round" stroke-linejoin="round" stroke-width="2"/>
    <line id="Line_62" data-name="Line 62" x1="7" transform="translate(8 33)" fill="none" stroke="#ed1f48" stroke-linecap="round" stroke-linejoin="round" stroke-width="2"/>
    <line id="Line_63" data-name="Line 63" x1="4.511" y2="4.511" transform="translate(46.132 14.923)" fill="none" stroke="#ed1f48" stroke-linecap="round" stroke-linejoin="round" stroke-width="2"/>
    <line id="Line_64" data-name="Line 64" x1="4.511" y1="4.511" transform="translate(15.356 14.923)" fill="none" stroke="#ed1f48" stroke-linecap="round" stroke-linejoin="round" stroke-width="2"/>
    <g id="Group_101" data-name="Group 101" transform="translate(0.169 -0.265)">
      <g id="Group_100" data-name="Group 100" clip-path="url(#clip-path)">
        <path id="Path_348" data-name="Path 348" d="M58.782,50.9c3.716-5.174,5.253-11.52,5.253-18.385A31.518,31.518,0,0,0,1,32.518C.987,39.384,2.53,45.729,6.253,50.9Z" transform="translate(0.313 0.313)" fill="none" stroke="#ed1f48" stroke-linecap="round" stroke-linejoin="round" stroke-width="2"/>
        <path id="Path_349" data-name="Path 349" d="M42.389,16.376A18.394,18.394,0,0,0,11,29.385" transform="translate(3.446 3.446)" fill="none" stroke="#ed1f48" stroke-linecap="round" stroke-linejoin="round" stroke-width="2"/>
        <path id="Path_350" data-name="Path 350" d="M44.951,20,30.4,25.2a6.551,6.551,0,1,0,2.729,5.311c0-.207-.042-.4-.06-.607Z" transform="translate(6.265 6.265)" fill="none" stroke="#ed1f48" stroke-linecap="round" stroke-linejoin="round" stroke-width="2"/>
      </g>
    </g>
  </g>
</svg>
