<svg id="Icon_-_Mobility" data-name="Icon - Mobility" xmlns="http://www.w3.org/2000/svg" xmlns:xlink="http://www.w3.org/1999/xlink" width="57" height="57" viewBox="0 0 57 57">
  <defs>
    <clipPath id="clip-path">
      <rect id="Rectangle_39" data-name="Rectangle 39" width="57" height="57" transform="translate(0.049 0.049)" fill="none" stroke="#ed1f48" stroke-linecap="round" stroke-width="2"/>
    </clipPath>
  </defs>
  <g id="Group_78" data-name="Group 78" transform="translate(-0.049 -0.049)" clip-path="url(#clip-path)">
    <path id="Path_318" data-name="Path 318" d="M18.114,1,4.145,14.969a10.72,10.72,0,0,0,.129,15.287L26.685,51.919A13.69,13.69,0,0,0,36.2,55.767H50.061a5.706,5.706,0,0,0,5.7-5.7V44.54a4.747,4.747,0,0,0-4.746-4.746A4.747,4.747,0,0,1,46.6,36.776L37.511,13.551" transform="translate(0.142 0.141)" fill="none" stroke="#ed1f48" stroke-linecap="round" stroke-linejoin="round" stroke-width="2"/>
    <path id="Path_319" data-name="Path 319" d="M50.921,48.088H39.87a9.128,9.128,0,0,1-6.455-2.673L3,15" transform="translate(0.423 2.115)" fill="none" stroke="#ed1f48" stroke-linecap="round" stroke-linejoin="round" stroke-width="2"/>
    <path id="Path_320" data-name="Path 320" d="M16,1V5.806A7.2,7.2,0,0,0,23.2,13H35.4" transform="translate(2.256 0.141)" fill="none" stroke="#ed1f48" stroke-linecap="round" stroke-linejoin="round" stroke-width="2"/>
    <line id="Line_31" data-name="Line 31" x2="9" transform="translate(32.049 23.049)" fill="none" stroke="#ed1f48" stroke-linecap="round" stroke-linejoin="round" stroke-width="2"/>
    <line id="Line_32" data-name="Line 32" x2="9" transform="translate(34.049 28.049)" fill="none" stroke="#ed1f48" stroke-linecap="round" stroke-linejoin="round" stroke-width="2"/>
    <line id="Line_33" data-name="Line 33" x2="14" transform="translate(1.049 50.049)" fill="none" stroke="#ed1f48" stroke-linecap="round" stroke-linejoin="round" stroke-width="2"/>
    <line id="Line_34" data-name="Line 34" x2="7" transform="translate(1.049 44.049)" fill="none" stroke="#ed1f48" stroke-linecap="round" stroke-linejoin="round" stroke-width="2"/>
    <line id="Line_35" data-name="Line 35" x2="10" transform="translate(36.049 34.049)" fill="none" stroke="#ed1f48" stroke-linecap="round" stroke-linejoin="round" stroke-width="2"/>
  </g>
</svg>
