<svg id="Icon_-_Strength" data-name="Icon - Strength" xmlns="http://www.w3.org/2000/svg" xmlns:xlink="http://www.w3.org/1999/xlink" width="57" height="57" viewBox="0 0 57 57">
  <defs>
    <clipPath id="clip-path">
      <rect id="Rectangle_38" data-name="Rectangle 38" width="57" height="57" fill="none" stroke="#ed1f48" stroke-width="2"/>
    </clipPath>
  </defs>
  <g id="Group_77" data-name="Group 77" clip-path="url(#clip-path)">
    <path id="Path_314" data-name="Path 314" d="M47.735,48.107l2.3-1.836a9.194,9.194,0,0,0,3.449-7.178V33.273a9.2,9.2,0,0,0-1.173-4.494L38.387,3.937A5.745,5.745,0,0,0,33.375,1H26.783a5.746,5.746,0,0,0-5.3,3.535L19.2,10.015a3.448,3.448,0,0,0,3.183,4.773h8.877a3.447,3.447,0,0,0,3.343-2.61l.5-1.985" transform="translate(2.596 -0.075)" fill="none" stroke="#ed1f48" stroke-linecap="round" stroke-linejoin="round" stroke-width="2"/>
    <path id="Path_315" data-name="Path 315" d="M32.085,39a16.615,16.615,0,0,1-8.043,2.3A16.615,16.615,0,0,1,16,39" transform="translate(2.159 5.585)" fill="none" stroke="#ed1f48" stroke-linecap="round" stroke-linejoin="round" stroke-width="2"/>
    <path id="Path_316" data-name="Path 316" d="M6,43.149l2.8,1.2a39.694,39.694,0,0,0,36.9,0L49.66,42" transform="translate(0.67 6.032)" fill="none" stroke="#ed1f48" stroke-linecap="round" stroke-linejoin="round" stroke-width="2"/>
    <line id="Line_28" data-name="Line 28" y1="7" x2="6" transform="translate(1 49)" fill="none" stroke="#ed1f48" stroke-linecap="round" stroke-linejoin="round" stroke-width="2"/>
    <line id="Line_29" data-name="Line 29" x1="3" y1="16" transform="translate(35 18)" fill="none" stroke="#ed1f48" stroke-linecap="round" stroke-linejoin="round" stroke-width="2"/>
    <line id="Line_30" data-name="Line 30" x1="3.369" y1="5.069" transform="translate(37.691 34.245)" fill="none" stroke="#ed1f48" stroke-linecap="round" stroke-linejoin="round" stroke-width="2"/>
    <path id="Path_317" data-name="Path 317" d="M37.767,30.894C35.773,26.533,31.384,24,26.277,24a12.579,12.579,0,0,0-8.758,3.538,2.275,2.275,0,0,1-3.164,0A12.58,12.58,0,0,0,1,24.874" transform="translate(-0.075 3.351)" fill="none" stroke="#ed1f48" stroke-linecap="round" stroke-linejoin="round" stroke-width="2"/>
  </g>
</svg>
