<svg id="Icon_-_Balance" data-name="Icon - Balance" xmlns="http://www.w3.org/2000/svg" xmlns:xlink="http://www.w3.org/1999/xlink" width="62.597" height="62.586" viewBox="0 0 62.597 62.586">
  <defs>
    <clipPath id="clip-path">
      <rect id="Rectangle_37" data-name="Rectangle 37" width="62.597" height="62.586" fill="none" stroke="#ed1f48" stroke-width="2"/>
    </clipPath>
  </defs>
  <g id="Group_76" data-name="Group 76" clip-path="url(#clip-path)">
    <path id="Path_305" data-name="Path 305" d="M124.78,169.608l3.69-10.407a7,7,0,0,0-1.839-7.484,19.376,19.376,0,0,1-6.456-14.177c-.056-11.321,10.126-20.549,22.741-20.611S165.8,126,165.858,137.317c0,.2-.016.39-.021.586h.024l.012,2.348,3.784,4.631a2.343,2.343,0,0,1-.332,3.3l-3.4,2.777.039,8.032A4.685,4.685,0,0,1,161.3,163.7l-4.685.023A14.063,14.063,0,0,1,143,153.434" transform="translate(-112.34 -109.307)" fill="none" stroke="#ed1f48" stroke-linecap="round" stroke-linejoin="round" stroke-width="2"/>
    <path id="Path_306" data-name="Path 306" d="M361.089,444.152a3.514,3.514,0,1,0-7.028.034l.011,2.343a5.857,5.857,0,0,0,5.886,5.828l1.171-.006" transform="translate(-330.978 -411.927)" fill="none" stroke="#ed1f48" stroke-linecap="round" stroke-linejoin="round" stroke-width="2"/>
    <line id="Line_27" data-name="Line 27" x1="2.343" y2="0.011" transform="translate(46.504 30.962)" fill="none" stroke="#ed1f48" stroke-linecap="round" stroke-linejoin="round" stroke-width="2"/>
    <path id="Path_307" data-name="Path 307" d="M572.163,882.845l1.322-3.857q.023-.065.048-.129" transform="translate(-534.862 -821.563)" fill="none" stroke="#ed1f48" stroke-linecap="round" stroke-linejoin="round" stroke-width="2"/>
    <path id="Path_308" data-name="Path 308" d="M358.47,146.826c2.947-.7,6.089-1.539,9.31-2.477a168.479,168.479,0,0,0,18.554-6.493" transform="translate(-335.1 -128.868)" fill="none" stroke="#ed1f48" stroke-linecap="round" stroke-linejoin="round" stroke-width="2"/>
    <path id="Path_309" data-name="Path 309" d="M26.106,229.655c-4.107,2.034-6.4,3.781-6.076,4.85.456,1.434,5.568,1.343,13.1.026" transform="translate(-18.696 -214.683)" fill="none" stroke="#ed1f48" stroke-linecap="round" stroke-linejoin="round" stroke-width="2"/>
    <path id="Path_310" data-name="Path 310" d="M634.469,22.4c11.135-2.53,19.31-3.194,19.9-1.356.2.626-.509,1.473-1.943,2.464" transform="translate(-593.106 -18.696)" fill="none" stroke="#ed1f48" stroke-linecap="round" stroke-linejoin="round" stroke-width="2"/>
    <path id="Path_311" data-name="Path 311" d="M40.291,22.532c-11.279-2.584-19.608-3.28-20.189-1.425-.761,2.428,12.034,8.306,28.579,13.129S79.254,41,80.015,38.573c.314-1-1.681-2.592-5.3-4.453" transform="translate(-18.761 -18.753)" fill="none" stroke="#ed1f48" stroke-linecap="round" stroke-linejoin="round" stroke-width="2"/>
    <path id="Path_312" data-name="Path 312" d="M823.982,82.011a1.956,1.956,0,1,1-1.956-1.956,1.956,1.956,0,0,1,1.956,1.956" transform="translate(-766.607 -74.836)" fill="none" stroke="#ed1f48" stroke-width="2"/>
    <path id="Path_313" data-name="Path 313" d="M263.981,262.011a1.956,1.956,0,1,1-1.956-1.956,1.956,1.956,0,0,1,1.956,1.956" transform="translate(-243.114 -243.101)" fill="none" stroke="#ed1f48" stroke-width="2"/>
  </g>
</svg>
