<svg id="Icon_-_Memory" data-name="Icon - Memory" xmlns="http://www.w3.org/2000/svg" xmlns:xlink="http://www.w3.org/1999/xlink" width="53.06" height="56.74" viewBox="0 0 53.06 56.74">
  <defs>
    <clipPath id="clip-path">
      <rect id="Rectangle_40" data-name="Rectangle 40" width="53.06" height="56.74" fill="none" stroke="#ed1f48" stroke-width="2"/>
    </clipPath>
  </defs>
  <g id="Group_90" data-name="Group 90" clip-path="url(#clip-path)">
    <path id="Path_322" data-name="Path 322" d="M24.644,73.121l3.721-10.494a7.057,7.057,0,0,0-1.854-7.547A19.539,19.539,0,0,1,20,40.784C19.945,29.368,30.212,20.063,42.933,20s23.079,9.142,23.135,20.558c0,.2-.016.393-.021.591h.024l.012,2.368,3.815,4.67a2.362,2.362,0,0,1-.335,3.324l-3.428,2.8.04,8.1a4.725,4.725,0,0,1-4.7,4.748l-4.725.023A14.181,14.181,0,0,1,43.02,56.81" transform="translate(-18.686 -18.685)" fill="none" stroke="#ed1f48" stroke-linecap="round" stroke-linejoin="round" stroke-width="2"/>
    <path id="Path_323" data-name="Path 323" d="M471.989,785.948l1.334-3.889c.016-.044.032-.087.048-.13" transform="translate(-440.96 -730.524)" fill="none" stroke="#ed1f48" stroke-linecap="round" stroke-linejoin="round" stroke-width="2"/>
    <path id="Path_324" data-name="Path 324" d="M149.035,126.408s6.53.281,6.947-4.981c.535-6.759-6.077-10.466-14.587-11.513-10.637-1.309-18.556,5.139-18.078,12.132.39,5.707,4.92,3.374,8.345,3.706,3.865.375,5.671,1.795,8.346,3.849C142.545,131.55,147.915,131.428,149.035,126.408Z" transform="translate(-115.192 -102.529)" fill="none" stroke="#ed1f48" stroke-linecap="round" stroke-linejoin="round" stroke-width="2"/>
    <path id="Path_325" data-name="Path 325" d="M187.62,366.738s0-.005-.007-.006c-3.936-1.36-6.746-3.281-6.5-6.047" transform="translate(-169.192 -336.973)" fill="none" stroke="#ed1f48" stroke-linecap="round" stroke-linejoin="round" stroke-width="2"/>
    <path id="Path_326" data-name="Path 326" d="M320.356,430.055a7.132,7.132,0,0,0-3.8,2.884,6.2,6.2,0,0,0-1.115,3.084" transform="translate(-294.702 -401.783)" fill="none" stroke="#ed1f48" stroke-linecap="round" stroke-linejoin="round" stroke-width="2"/>
    <path id="Path_327" data-name="Path 327" d="M221.693,258.446c-1.129-2.437-3.5-4.976-8.983-6.364-4.525-1.147-11.681.112-11.681.112" transform="translate(-187.812 -235.059)" fill="none" stroke="#ed1f48" stroke-linecap="round" stroke-linejoin="round" stroke-width="2"/>
    <path id="Path_328" data-name="Path 328" d="M340.225,200.743a6.363,6.363,0,0,0-2.708-4.095" transform="translate(-315.328 -183.72)" fill="none" stroke="#ed1f48" stroke-linecap="round" stroke-linejoin="round" stroke-width="2"/>
    <path id="Path_329" data-name="Path 329" d="M303.242,338.683a6.634,6.634,0,0,1,7.593-1.087" transform="translate(-283.306 -314.682)" fill="none" stroke="#ed1f48" stroke-linecap="round" stroke-linejoin="round" stroke-width="2"/>
    <path id="Path_330" data-name="Path 330" d="M513.006,157.686a3.649,3.649,0,0,0-1.776,5.4" transform="translate(-477.087 -147.319)" fill="none" stroke="#ed1f48" stroke-linecap="round" stroke-linejoin="round" stroke-width="2"/>
  </g>
</svg>
