<svg id="Icon_-_Concentration" data-name="Icon - Concentration" xmlns="http://www.w3.org/2000/svg" xmlns:xlink="http://www.w3.org/1999/xlink" width="53.06" height="56.74" viewBox="0 0 53.06 56.74">
  <defs>
    <clipPath id="clip-path">
      <rect id="Rectangle_41" data-name="Rectangle 41" width="53.06" height="56.74" fill="none" stroke="#ed1f48" stroke-width="2"/>
    </clipPath>
  </defs>
  <g id="Group_95" data-name="Group 95" clip-path="url(#clip-path)">
    <path id="Path_332" data-name="Path 332" d="M24.644,73.121l3.721-10.494a7.057,7.057,0,0,0-1.854-7.547A19.539,19.539,0,0,1,20,40.784C19.945,29.368,30.212,20.063,42.933,20s23.079,9.142,23.135,20.558c0,.2-.016.393-.021.591h.024l.012,2.368,3.815,4.67a2.362,2.362,0,0,1-.335,3.324l-3.428,2.8.04,8.1a4.725,4.725,0,0,1-4.7,4.748l-4.725.023A14.181,14.181,0,0,1,43.02,56.81" transform="translate(-18.686 -18.685)" fill="none" stroke="#ed1f48" stroke-linecap="round" stroke-linejoin="round" stroke-width="2"/>
    <path id="Path_333" data-name="Path 333" d="M471.989,785.949l1.334-3.889q.023-.066.048-.13" transform="translate(-440.96 -730.524)" fill="none" stroke="#ed1f48" stroke-linecap="round" stroke-linejoin="round" stroke-width="2"/>
    <path id="Path_334" data-name="Path 334" d="M190,105.961l3.887-1.157v-3.471L190,100.176a10.345,10.345,0,0,0-.88-2.136l1.928-3.562-2.454-2.455-3.562,1.928a10.348,10.348,0,0,0-2.136-.88l-1.157-3.887h-3.471L177.1,93.071a10.347,10.347,0,0,0-2.136.88l-3.562-1.928-2.455,2.455,1.928,3.562a13.933,13.933,0,0,0-.88,2.136l-3.887,1.157V104.8L170,105.961a10.344,10.344,0,0,0,.88,2.136l-1.928,3.562,2.455,2.454,3.562-1.911a10.293,10.293,0,0,0,2.136.863l1.157,3.887h3.471l1.157-3.887a10.346,10.346,0,0,0,2.136-.88l3.562,1.928,2.454-2.454-1.928-3.562A10.344,10.344,0,0,0,190,105.961Z" transform="translate(-155.192 -83.321)" fill="none" stroke="#ed1f48" stroke-linecap="round" stroke-linejoin="round" stroke-width="2"/>
    <circle id="Ellipse_2" data-name="Ellipse 2" cx="5.785" cy="5.785" r="5.785" transform="translate(19.02 13.962)" fill="none" stroke="#ed1f48" stroke-linecap="round" stroke-linejoin="round" stroke-width="2"/>
  </g>
</svg>
