<svg id="Icon_-_Social_Life" data-name="Icon - Social Life" xmlns="http://www.w3.org/2000/svg" xmlns:xlink="http://www.w3.org/1999/xlink" width="55.207" height="59.131" viewBox="0 0 55.207 59.131">
  <defs>
    <clipPath id="clip-path">
      <rect id="Rectangle_46" data-name="Rectangle 46" width="55.207" height="59.131" fill="none" stroke="#ed1f48" stroke-width="2"/>
    </clipPath>
  </defs>
  <g id="Group_99" data-name="Group 99" clip-path="url(#clip-path)">
    <path id="Path_342" data-name="Path 342" d="M11.8,31.846V29.158L3.742,19.751,1.288,15.633C.432,13.493,1.554,9.728,3.742,9l4.032,6.719L13.149,21.1a6.028,6.028,0,0,0,3.874,1.344h3A6.028,6.028,0,0,0,23.9,21.1l5.376-5.376L33.307,9c2.188.728,3.31,4.493,2.454,6.633l-2.454,4.118-8.063,9.407V42.6" transform="translate(0.344 3.095)" fill="none" stroke="#ed1f48" stroke-miterlimit="10" stroke-width="2"/>
    <path id="Path_343" data-name="Path 343" d="M15.072,9A3.915,3.915,0,0,1,19.1,13.04v1.347a3.914,3.914,0,0,1-4.032,4.04,3.914,3.914,0,0,1-4.032-4.04V13.04A3.915,3.915,0,0,1,15.072,9Z" transform="translate(3.797 3.095)" fill="none" stroke="#ed1f48" stroke-miterlimit="10" stroke-width="2"/>
    <path id="Path_344" data-name="Path 344" d="M28.072,34.426a3.915,3.915,0,0,1-4.032-4.04V29.04a4.032,4.032,0,1,1,8.063,0v1.347A3.915,3.915,0,0,1,28.072,34.426Z" transform="translate(8.267 8.597)" fill="none" stroke="#ed1f48" stroke-miterlimit="10" stroke-width="2"/>
    <path id="Path_345" data-name="Path 345" d="M21.08,50.534V43.814c0-4.439,4.743-5.376,8.01-5.376h1.5A11.987,11.987,0,0,0,34.465,37.1l5.376-2.688L43.872,25c2.188.728,3.31,5.837,2.454,7.977l-2.454,5.462-8.01,6.719v5.376" transform="translate(7.249 8.597)" fill="none" stroke="#ed1f48" stroke-miterlimit="10" stroke-width="2"/>
    <path id="Path_346" data-name="Path 346" d="M12.072,37.426a3.915,3.915,0,0,0,4.032-4.04V32.04A3.914,3.914,0,0,0,12.072,28,3.914,3.914,0,0,0,8.04,32.04v1.347A3.915,3.915,0,0,0,12.072,37.426Z" transform="translate(2.765 9.629)" fill="none" stroke="#ed1f48" stroke-miterlimit="10" stroke-width="2"/>
    <path id="Path_347" data-name="Path 347" d="M5.04,46.063V43.376C5.04,38.937,9.835,38,13.1,38s8.063.937,8.063,5.376v2.688" transform="translate(1.733 13.068)" fill="none" stroke="#ed1f48" stroke-miterlimit="10" stroke-width="2"/>
    <line id="Line_58" data-name="Line 58" y1="6.719" transform="translate(18.868)" fill="none" stroke="#ed1f48" stroke-miterlimit="10" stroke-width="2"/>
    <line id="Line_59" data-name="Line 59" y1="4.032" x2="4.032" transform="translate(24.297 4.032)" fill="none" stroke="#ed1f48" stroke-miterlimit="10" stroke-width="2"/>
    <line id="Line_60" data-name="Line 60" x1="4.032" y1="4.032" transform="translate(9.514 4.032)" fill="none" stroke="#ed1f48" stroke-miterlimit="10" stroke-width="2"/>
  </g>
</svg>
